<svg id="Capa_1" enable-background="new 0 0 512 512" height="512" viewBox="0 0 512 512" width="512" xmlns="http://www.w3.org/2000/svg"><g><g><g><g><g><g><g><circle cx="256" cy="256" fill="#ffce00" r="256"/></g></g></g></g></g></g><path d="m512 256c0-16.427-1.548-32.493-4.504-48.06l-92.727-92.727-244.19 73.57-73.348 223.645 90.318 90.318c21.789 6.031 44.743 9.254 68.451 9.254 141.385 0 256-114.615 256-256z" fill="#ffa300"/><g><path d="m414.769 342.441h-261.937l-55.601 69.987v-297.215h317.538z" fill="#e9edf5"/></g><g><path d="m256.121 115.213h158.648v227.227h-158.648z" fill="#cdd2e1"/></g><g><path d="m154.635 368.383h200.78l42.619 53.646v-227.821h-243.399z" fill="#7584f2"/></g><g><path d="m398.034 422.03v-227.822h-141.913v174.175h99.294z" fill="#606aea"/></g><g><g><circle cx="311.464" cy="266.749" fill="#a3d4ff" r="24.393"/></g><g><path d="m265.53 340.102c0-25.368 20.565-45.933 45.933-45.933s45.933 20.565 45.933 45.933z" fill="#a3d4ff"/></g></g><g><g><circle cx="239.201" cy="250" fill="#fff" r="29.963"/></g><g><path d="m269.164 250c0-10.269-5.168-19.328-13.043-24.727v49.453c7.874-5.398 13.043-14.457 13.043-24.726z" fill="#e9edf5"/></g><g><path d="m182.779 340.102c0-31.161 25.261-56.421 56.421-56.421s56.421 25.261 56.421 56.421z" fill="#fff"/></g><g><path d="m256.121 286.265v53.837h39.501c0-25.265-16.608-46.649-39.501-53.837z" fill="#e9edf5"/></g></g></g></svg>